<?xml version="1.0" encoding="UTF-8"?><svg id="_레이어_1" xmlns="http://www.w3.org/2000/svg" width="26" height="26" viewBox="0 0 26 26"><defs><style>.cls-1{fill:#ce0e2d;fill-rule:evenodd;stroke-width:0px;}</style></defs><g id="global_out"><g id="Group-3"><path id="Fill-1" class="cls-1" d="m17.73,23.5c1.85-2.21,3.07-5.71,3.2-9.77h3.56c-.28,4.36-2.97,8.06-6.76,9.77h0ZM1.51,13.74h3.56c.13,4.06,1.35,7.56,3.2,9.77-3.79-1.72-6.48-5.42-6.76-9.77h0ZM8.27,2.5c-1.85,2.21-3.07,5.71-3.2,9.77H1.51c.28-4.36,2.97-8.06,6.76-9.77h0Zm5.47,9.76V1.56c3.04.65,5.51,5.22,5.72,10.71h-5.72v-.01Zm0,12.18v-10.7h5.72c-.21,5.48-2.68,10.06-5.72,10.7h0Zm-1.48-10.7v10.71c-3.04-.65-5.51-5.23-5.72-10.71h5.72Zm0-12.18v10.7h-5.72c.21-5.48,2.68-10.06,5.72-10.7h0Zm12.23,10.7h-3.56c-.13-4.06-1.35-7.56-3.2-9.77,3.79,1.72,6.48,5.42,6.76,9.77h0ZM13,0C5.83,0,0,5.83,0,13s5.83,13,13,13,13-5.83,13-13S20.17,0,13,0h0Z"/></g></g></svg>